<svg width="305" height="40" viewBox="0 0 305 40" fill="none" xmlns="http://www.w3.org/2000/svg">
<path d="M43.5728 35.0647L38.4007 29.8824L39.7829 28.51L45 33.6471L43.5728 35.0647ZM36.0018 7.68941L34.6202 6.31647L39.7917 1.17941L41.2189 2.55176L36.0018 7.68941ZM8.99822 7.73471L3.82669 2.55176L5.20825 1.17941L10.4254 6.31647L8.99822 7.73471ZM1.38156 35.0647L0 33.6471L5.17154 28.51L6.59929 29.8824L1.38156 35.0647ZM12.3873 35.7906L22.5 29.7541L32.6583 35.8947L30.0148 24.4765L38.8987 16.8629L27.1765 15.8147L22.5 5.08118L17.8685 15.7559L6.14686 16.7588L15.0308 24.4676L12.3873 35.7906ZM9.33103 40L12.8154 25.2353L1.18141 15.2488L16.5053 13.9594L22.5 0L28.5403 13.9594L43.8642 15.2488L32.2302 25.2353L35.7146 40L22.5 32.14L9.33103 40Z" fill="url(#paint0_linear_20_29)"/>
<path d="M108.573 35.0647L103.401 29.8824L104.783 28.51L110 33.6471L108.573 35.0647ZM101.002 7.68941L99.6202 6.31647L104.792 1.17941L106.219 2.55176L101.002 7.68941ZM73.9982 7.73471L68.8267 2.55176L70.2083 1.17941L75.4254 6.31647L73.9982 7.73471ZM66.3816 35.0647L65 33.6471L70.1715 28.51L71.5993 29.8824L66.3816 35.0647ZM77.3873 35.7906L87.5 29.7541L97.6583 35.8947L95.0148 24.4765L103.899 16.8629L92.1765 15.8147L87.5 5.08118L82.8685 15.7559L71.1469 16.7588L80.0308 24.4676L77.3873 35.7906ZM74.331 40L77.8154 25.2353L66.1814 15.2488L81.5053 13.9594L87.5 0L93.5403 13.9594L108.864 15.2488L97.2302 25.2353L100.715 40L87.5 32.14L74.331 40Z" fill="url(#paint1_linear_20_29)"/>
<path d="M173.573 35.0647L168.401 29.8824L169.783 28.51L175 33.6471L173.573 35.0647ZM166.002 7.68941L164.62 6.31647L169.792 1.17941L171.219 2.55176L166.002 7.68941ZM138.998 7.73471L133.827 2.55176L135.208 1.17941L140.425 6.31647L138.998 7.73471ZM131.382 35.0647L130 33.6471L135.172 28.51L136.599 29.8824L131.382 35.0647ZM142.387 35.7906L152.5 29.7541L162.658 35.8947L160.015 24.4765L168.899 16.8629L157.176 15.8147L152.5 5.08118L147.869 15.7559L136.147 16.7588L145.031 24.4676L142.387 35.7906ZM139.331 40L142.815 25.2353L131.181 15.2488L146.505 13.9594L152.5 0L158.54 13.9594L173.864 15.2488L162.23 25.2353L165.715 40L152.5 32.14L139.331 40Z" fill="url(#paint2_linear_20_29)"/>
<path d="M238.573 35.0647L233.401 29.8824L234.783 28.51L240 33.6471L238.573 35.0647ZM231.002 7.68941L229.62 6.31647L234.792 1.17941L236.219 2.55176L231.002 7.68941ZM203.998 7.73471L198.827 2.55176L200.208 1.17941L205.425 6.31647L203.998 7.73471ZM196.382 35.0647L195 33.6471L200.172 28.51L201.599 29.8824L196.382 35.0647ZM207.387 35.7906L217.5 29.7541L227.658 35.8947L225.015 24.4765L233.899 16.8629L222.176 15.8147L217.5 5.08118L212.869 15.7559L201.147 16.7588L210.031 24.4676L207.387 35.7906ZM204.331 40L207.815 25.2353L196.181 15.2488L211.505 13.9594L217.5 0L223.54 13.9594L238.864 15.2488L227.23 25.2353L230.715 40L217.5 32.14L204.331 40Z" fill="url(#paint3_linear_20_29)"/>
<path d="M303.573 35.0647L298.401 29.8824L299.783 28.51L305 33.6471L303.573 35.0647ZM296.002 7.68941L294.62 6.31647L299.792 1.17941L301.219 2.55176L296.002 7.68941ZM268.998 7.73471L263.827 2.55176L265.208 1.17941L270.425 6.31647L268.998 7.73471ZM261.382 35.0647L260 33.6471L265.172 28.51L266.599 29.8824L261.382 35.0647ZM272.387 35.7906L282.5 29.7541L292.658 35.8947L290.015 24.4765L298.899 16.8629L287.176 15.8147L282.5 5.08118L277.869 15.7559L266.147 16.7588L275.031 24.4676L272.387 35.7906ZM269.331 40L272.815 25.2353L261.181 15.2488L276.505 13.9594L282.5 0L288.54 13.9594L303.864 15.2488L292.23 25.2353L295.715 40L282.5 32.14L269.331 40Z" fill="url(#paint4_linear_20_29)"/>
<defs>
<linearGradient id="paint0_linear_20_29" x1="0" y1="20" x2="45" y2="20" gradientUnits="userSpaceOnUse">
<stop offset="0.0144231" stop-color="#FFC704"/>
<stop offset="1" stop-color="#EDB901"/>
</linearGradient>
<linearGradient id="paint1_linear_20_29" x1="65" y1="20" x2="110" y2="20" gradientUnits="userSpaceOnUse">
<stop offset="0.0144231" stop-color="#FFC704"/>
<stop offset="1" stop-color="#EDB901"/>
</linearGradient>
<linearGradient id="paint2_linear_20_29" x1="130" y1="20" x2="175" y2="20" gradientUnits="userSpaceOnUse">
<stop offset="0.0144231" stop-color="#FFC704"/>
<stop offset="1" stop-color="#EDB901"/>
</linearGradient>
<linearGradient id="paint3_linear_20_29" x1="195" y1="20" x2="240" y2="20" gradientUnits="userSpaceOnUse">
<stop offset="0.0144231" stop-color="#FFC704"/>
<stop offset="1" stop-color="#EDB901"/>
</linearGradient>
<linearGradient id="paint4_linear_20_29" x1="260" y1="20" x2="305" y2="20" gradientUnits="userSpaceOnUse">
<stop offset="0.0144231" stop-color="#FFC704"/>
<stop offset="1" stop-color="#EDB901"/>
</linearGradient>
</defs>
</svg>
