<svg width="100" height="100" viewBox="0 0 100 100" fill="none" xmlns="http://www.w3.org/2000/svg">
<path d="M34.889 48.0141L48.0053 34.8851L35.5071 22.3743L28.7831 29.1735L25.3651 25.7561L32.1515 19.0293L19.7752 6.67158L6.6489 19.8006L34.889 48.0141ZM80.0732 93.2618L93.1994 80.1115L80.8217 67.7311L74.0976 74.519L70.6796 71.1016L77.3937 64.3762L65.0897 52.0057L51.9748 65.1249L80.0732 93.2618ZM22.9593 94.3494H5.6707V77.0571L31.4398 51.2826L0 19.8006L19.6802 0L51.3922 31.5869L77.8956 5.06785C78.4286 4.53469 78.9872 4.15656 79.5713 3.93347C80.1554 3.71037 80.7673 3.59883 81.4072 3.59883C82.047 3.59883 82.659 3.71037 83.2431 3.93347C83.8272 4.15656 84.3857 4.53469 84.9188 5.06785L94.9332 15.4219C95.4663 15.956 95.8264 16.5147 96.0135 17.098C96.1997 17.6822 96.2928 18.2943 96.2928 18.9343C96.2928 19.5742 96.1997 20.1665 96.0135 20.711C95.8264 21.2555 95.4663 21.7943 94.9332 22.3275L68.6481 48.665L100 80.2419L80.2986 100L48.7496 68.5535L22.9593 94.3494ZM10.4695 89.5495H20.8583L76.6339 33.7507L66.2338 23.3484L10.4695 79.1586V89.5495ZM71.4211 28.5013L66.2338 23.3484L76.6339 33.7507L71.4211 28.5013Z" fill="url(#paint0_linear_15_16)"/>
<defs>
<linearGradient id="paint0_linear_15_16" x1="0" y1="50" x2="100" y2="50" gradientUnits="userSpaceOnUse">
<stop offset="0.0144231" stop-color="#FFC704"/>
<stop offset="1" stop-color="#EDB901"/>
</linearGradient>
</defs>
</svg>
