<svg width="108" height="100" viewBox="0 0 108 100" fill="none" xmlns="http://www.w3.org/2000/svg">
<path d="M14.3711 100V46.9402L2.86743 55.8159L0 52.0309L14.3711 40.9611V26.4199H19.162V37.1803L54 10.5901L108 52.0522L105.133 55.8045L93.6289 46.9402V100H14.3711ZM19.162 95.196H46.5965V68.1232H61.4035V95.196H88.838V43.3411L54 16.6785L19.162 43.3411V95.196ZM14.3711 19.2146C14.3711 15.9003 15.4307 13.0704 17.5499 10.7249C19.6682 8.37851 22.6729 7.2053 26.5641 7.2053C29.1626 7.2053 31.0464 6.50232 32.2154 5.09636C33.3836 3.69135 33.9676 1.99256 33.9676 0H38.7585C38.7585 3.30012 37.7121 6.12671 35.6193 8.47975C33.5265 10.8328 30.5081 12.0093 26.5641 12.0093C23.9976 12.0093 22.1223 12.7042 20.9382 14.0941C19.754 15.484 19.162 17.1908 19.162 19.2146H14.3711Z" fill="url(#paint0_linear_15_18)"/>
<defs>
<linearGradient id="paint0_linear_15_18" x1="0" y1="50" x2="108" y2="50" gradientUnits="userSpaceOnUse">
<stop offset="0.0144231" stop-color="#FFC704"/>
<stop offset="1" stop-color="#EDB901"/>
</linearGradient>
</defs>
</svg>
