<svg width="113" height="100" viewBox="0 0 113 100" fill="none" xmlns="http://www.w3.org/2000/svg">
<path d="M53.9843 100V83.875H59.0157V100H53.9843ZM0 45.9952V40.9618H16.1189V45.9952H0ZM96.8811 45.9952V40.9618H113V45.9952H96.8811ZM93.3053 85.9648L82.0053 74.6605L85.6124 71.052L96.9124 82.3564L93.3053 85.9648ZM19.6947 85.9648L16.0876 82.3564L27.3876 71.052L30.9947 74.6605L19.6947 85.9648ZM40.1997 59.7849C35.7353 55.3187 33.503 49.8832 33.503 43.4785C33.503 39.161 34.5651 35.2243 36.6893 31.6684C38.8125 28.1125 41.7153 25.2959 45.3977 23.2185V0H67.6022V23.2185C71.2847 25.2959 74.1875 28.1125 76.3107 31.6684C78.4349 35.2243 79.497 39.161 79.497 43.4785C79.497 49.8832 77.2647 55.3187 72.8002 59.7849C68.3358 64.2511 62.9023 66.4842 56.5 66.4842C50.0977 66.4842 44.6642 64.2511 40.1997 59.7849ZM50.4307 21.5645C51.4368 21.2233 52.4295 20.9804 53.4089 20.8356C54.3872 20.6909 55.4176 20.6185 56.5 20.6185C57.5824 20.6185 58.6128 20.6909 59.5911 20.8356C60.5705 20.9804 61.5632 21.2233 62.5693 21.5645V5.03488H50.4307V21.5645ZM56.5 61.4493C61.471 61.4493 65.708 59.6977 69.211 56.1943C72.713 52.69 74.464 48.4514 74.464 43.4785C74.464 38.5056 72.713 34.2669 69.211 30.7626C65.708 27.2593 61.471 25.5076 56.5 25.5076C51.529 25.5076 47.292 27.2593 43.789 30.7626C40.287 34.2669 38.536 38.5056 38.536 43.4785C38.536 48.4514 40.287 52.69 43.789 56.1943C47.292 59.6977 51.529 61.4493 56.5 61.4493Z" fill="url(#paint0_linear_15_20)"/>
<defs>
<linearGradient id="paint0_linear_15_20" x1="0" y1="50" x2="113" y2="50" gradientUnits="userSpaceOnUse">
<stop offset="0.0144231" stop-color="#FFC704"/>
<stop offset="1" stop-color="#EDB901"/>
</linearGradient>
</defs>
</svg>
