<svg width="1440" height="1152" viewBox="0 0 1440 1152" fill="none" xmlns="http://www.w3.org/2000/svg">
<path d="M1263.64 1016.33C1286.64 1016.33 1305.79 1019.51 1321.1 1025.85C1336.4 1032.2 1350.44 1039.43 1363.19 1047.55C1375.95 1055.68 1388.59 1063.33 1401.12 1070.51C1413.65 1077.7 1428.61 1081.9 1446 1083.12V1152C1423.87 1151.18 1405.33 1147.29 1390.39 1140.31C1375.45 1133.34 1361.57 1125.8 1348.75 1117.69C1335.94 1109.58 1323.1 1102.18 1310.25 1095.48C1297.4 1088.78 1281.79 1085.43 1263.43 1085.43C1245.33 1085.43 1229.55 1088.88 1216.11 1095.78C1202.67 1102.69 1189.4 1110.3 1176.3 1118.61C1163.21 1126.92 1148.76 1134.56 1132.98 1141.53C1117.19 1148.51 1097.86 1152 1074.98 1152C1052.1 1152 1032.78 1148.51 1017.03 1141.53C1001.28 1134.56 986.84 1126.92 973.723 1118.61C960.605 1110.3 947.36 1102.69 933.986 1095.78C920.613 1088.88 904.816 1085.43 886.595 1085.43C868.374 1085.43 852.72 1088.78 839.633 1095.48C826.546 1102.18 813.684 1109.58 801.048 1117.69C788.405 1125.8 774.597 1133.34 759.622 1140.31C744.879 1147.18 726.672 1151.06 705 1151.96V1152C704.833 1151.99 704.666 1151.98 704.499 1151.98C704.333 1151.98 704.167 1151.99 704 1152V1151.96C682.281 1151.06 664.051 1147.18 649.312 1140.31C634.354 1133.34 620.457 1125.8 607.62 1117.69C594.79 1109.58 581.938 1102.18 569.065 1095.48C556.199 1088.78 540.572 1085.43 522.187 1085.43C504.057 1085.43 488.263 1088.88 474.805 1095.78C461.346 1102.69 448.058 1110.3 434.941 1118.61C421.825 1126.92 407.363 1134.56 391.557 1141.53C375.75 1148.51 356.392 1152 333.481 1152C310.571 1152 291.228 1148.51 275.452 1141.53C259.677 1134.56 245.221 1126.92 232.086 1118.61C218.951 1110.3 205.687 1102.69 192.296 1095.78C178.905 1088.88 163.086 1085.43 144.841 1085.43C126.596 1085.43 110.921 1088.78 97.8164 1095.48C84.7117 1102.18 71.8322 1109.58 59.1787 1117.69C46.5191 1125.8 32.6914 1133.34 17.6963 1140.31C2.70732 1147.29 -15.8581 1151.18 -38 1152V1083.12C-20.5109 1081.9 -5.53739 1077.68 6.9209 1070.47C19.3792 1063.26 31.9417 1055.61 44.6074 1047.51C57.2791 1039.42 71.4113 1032.2 87.0039 1025.85C102.597 1019.51 121.906 1016.33 144.933 1016.33C167.959 1016.33 187.381 1019.79 203.199 1026.69C219.018 1033.6 233.492 1041.24 246.621 1049.62C259.756 1057.99 273.025 1065.66 286.429 1072.65C299.838 1079.63 315.516 1083.12 333.463 1083.12C351.556 1083.12 367.271 1079.61 380.607 1072.6C393.944 1065.59 407.18 1057.92 420.315 1049.57C433.444 1041.23 447.982 1033.6 463.929 1026.69C479.875 1019.79 499.364 1016.33 522.396 1016.33C545.423 1016.33 564.601 1019.51 579.932 1025.85C595.256 1032.2 609.307 1039.43 622.082 1047.55C634.851 1055.68 647.511 1063.33 660.061 1070.51C672.484 1077.63 687.297 1081.82 704.5 1083.08C721.751 1081.82 736.539 1077.62 748.861 1070.47C761.303 1063.26 773.848 1055.61 786.496 1047.51C799.151 1039.42 813.264 1032.2 828.836 1025.85C844.408 1019.51 863.691 1016.33 886.687 1016.33C909.682 1016.33 929.078 1019.79 944.875 1026.69C960.672 1033.6 975.127 1041.24 988.238 1049.62C1001.36 1057.99 1014.61 1065.66 1027.99 1072.65C1041.38 1079.63 1057.04 1083.12 1074.96 1083.12C1093.03 1083.12 1108.73 1079.61 1122.04 1072.6C1135.36 1065.59 1148.58 1057.92 1161.7 1049.57C1174.81 1041.23 1189.33 1033.6 1205.25 1026.69C1221.18 1019.79 1240.64 1016.33 1263.64 1016.33ZM1263.36 848.965C1286.58 848.965 1305.84 852.138 1321.13 858.483C1336.41 864.823 1350.44 872.02 1363.19 880.072C1375.95 888.119 1388.59 895.736 1401.12 902.923C1413.65 910.11 1428.61 914.313 1446 915.532V984.623C1423.87 983.002 1405.33 978.582 1390.39 971.364C1375.45 964.153 1361.57 956.6 1348.75 948.706C1335.94 940.818 1323.1 933.7 1310.25 927.354C1297.4 921.015 1281.81 917.846 1263.5 917.846C1245.17 917.846 1229.37 921.305 1216.1 928.224C1202.82 935.148 1189.54 942.796 1176.27 951.165C1162.99 959.541 1148.52 967.213 1132.84 974.181C1117.17 981.142 1097.89 984.623 1075.01 984.623C1052.13 984.623 1032.8 981.127 1017.03 974.135C1001.26 967.143 986.828 959.48 973.741 951.147C960.654 942.82 947.405 935.188 933.995 928.251C920.591 921.314 904.791 917.846 886.595 917.846C868.404 917.846 852.759 921.195 839.66 927.895C826.555 934.594 813.684 942.015 801.048 950.159C788.405 958.303 774.597 965.881 759.622 972.892C744.879 979.796 726.672 983.69 705 984.581V984.623C704.883 984.615 704.766 984.604 704.649 984.596C704.433 984.604 704.217 984.615 704 984.623V984.545C682.281 982.865 664.051 978.473 649.312 971.364C634.354 964.153 620.456 956.6 607.62 948.706C594.79 940.818 581.938 933.7 569.065 927.354C556.199 921.015 540.593 917.846 522.25 917.846C503.901 917.846 488.08 921.305 474.786 928.224C461.492 935.149 448.198 942.795 434.904 951.165C421.611 959.541 407.115 967.213 391.419 974.181C375.723 981.142 356.419 984.623 333.509 984.623C310.599 984.623 291.246 981.127 275.452 974.135C259.658 967.143 245.209 959.48 232.104 951.147C219 942.82 205.734 935.188 192.306 928.251C178.884 921.314 163.062 917.846 144.841 917.846C126.626 917.846 110.961 921.195 97.8438 927.895C84.7208 934.594 71.8321 942.015 59.1787 950.159C46.5191 958.303 32.6914 965.881 17.6963 972.892C2.70734 979.902 -15.8582 983.812 -38 984.623V915.532C-20.5109 914.313 -5.53739 910.112 6.9209 902.932C19.3792 895.751 31.9417 888.134 44.6074 880.081C57.2791 872.022 71.4113 864.823 87.0039 858.483C102.597 852.138 121.906 848.965 144.933 848.965C167.959 848.965 187.381 852.419 203.199 859.325C219.018 866.226 233.492 873.827 246.621 882.13C259.756 890.432 273.025 898.073 286.429 905.053C299.838 912.039 315.516 915.532 333.463 915.532C351.556 915.532 367.271 912.042 380.607 905.062C393.944 898.089 407.18 890.447 420.315 882.139C433.444 873.83 447.982 866.226 463.929 859.325C479.875 852.419 499.27 848.965 522.113 848.965C545.365 848.965 564.647 852.138 579.959 858.483C595.265 864.823 609.307 872.02 622.082 880.072C634.851 888.119 647.511 895.736 660.061 902.923C672.484 910.041 687.297 914.23 704.5 915.494C721.751 914.23 736.539 910.044 748.861 902.932C761.303 895.751 773.848 888.134 786.496 880.081C799.151 872.022 813.264 864.823 828.836 858.483C844.408 852.138 863.691 848.965 886.687 848.965C909.682 848.965 929.078 852.419 944.875 859.325C960.672 866.226 975.127 873.827 988.238 882.13C1001.36 890.432 1014.61 898.073 1027.99 905.053C1041.38 912.039 1057.04 915.532 1074.96 915.532C1093.03 915.532 1108.73 912.042 1122.04 905.062C1135.36 898.089 1148.58 890.447 1161.7 882.139C1174.81 873.83 1189.33 866.226 1205.25 859.325C1221.18 852.419 1240.55 848.965 1263.36 848.965ZM1263.36 681.597C1286.58 681.597 1305.84 684.946 1321.13 691.646C1336.41 698.345 1350.44 705.745 1363.19 713.847C1375.95 721.942 1388.59 729.507 1401.12 736.542C1413.65 743.57 1428.61 747.441 1446 748.154V817.254C1423.87 816.443 1405.33 812.533 1390.39 805.522C1375.45 798.512 1361.57 790.935 1348.75 782.791C1335.94 774.647 1323.1 767.226 1310.25 760.526C1297.4 753.821 1281.79 750.468 1263.43 750.468C1245.33 750.468 1229.55 753.933 1216.11 760.864C1202.67 767.795 1189.39 775.421 1176.27 783.742C1163.15 792.063 1148.71 799.729 1132.96 806.739C1117.21 813.749 1097.89 817.254 1075.01 817.254C1052.13 817.254 1032.8 813.759 1017.03 806.767C1001.26 799.769 986.828 792.106 973.741 783.779C960.654 775.452 947.405 767.817 933.995 760.874C920.591 753.937 904.791 750.468 886.595 750.468C868.404 750.468 852.759 753.821 839.66 760.526C826.555 767.226 813.684 774.647 801.048 782.791C788.405 790.935 774.597 798.512 759.622 805.522C744.879 812.427 726.672 816.321 705 817.212V817.254C704.833 817.248 704.666 817.239 704.499 817.232C704.333 817.239 704.167 817.248 704 817.254V817.212C682.281 816.321 664.051 812.427 649.312 805.522C634.354 798.512 620.456 790.935 607.62 782.791C594.79 774.647 581.938 767.226 569.065 760.526C556.199 753.821 540.572 750.468 522.187 750.468C504.057 750.468 488.263 753.933 474.805 760.864C461.346 767.795 448.046 775.421 434.904 783.742C421.769 792.063 407.314 799.729 391.538 806.739C375.762 813.749 356.419 817.254 333.509 817.254C310.599 817.254 291.246 813.759 275.452 806.767C259.658 799.769 245.209 792.106 232.104 783.779C219 775.452 205.733 767.817 192.306 760.874C178.884 753.937 163.062 750.468 144.841 750.468C126.626 750.468 110.961 753.821 97.8438 760.526C84.7208 767.226 71.8321 774.647 59.1787 782.791C46.5191 790.935 32.6914 798.512 17.6963 805.522C2.70728 812.533 -15.858 816.443 -38 817.254V748.154C-20.5291 747.441 -5.55842 743.573 6.91211 736.551C19.3765 729.522 31.9418 721.958 44.6074 713.856C57.2792 705.749 71.4112 698.345 87.0039 691.646C102.597 684.946 121.906 681.597 144.933 681.597C167.959 681.597 187.381 685.047 203.199 691.947C219.018 698.854 233.492 706.459 246.621 714.762C259.756 723.064 273.025 730.705 286.429 737.685C299.838 744.664 315.516 748.154 333.463 748.154C351.556 748.154 367.271 744.668 380.607 737.694C393.944 730.721 407.18 723.079 420.315 714.771C433.444 706.462 447.982 698.854 463.929 691.947C479.875 685.047 499.27 681.597 522.113 681.597C545.365 681.597 564.647 684.946 579.959 691.646C595.265 698.345 609.307 705.745 622.082 713.847C634.851 721.942 647.511 729.507 660.061 736.542C672.484 743.503 687.297 747.365 704.5 748.131C721.733 747.365 736.517 743.506 748.852 736.551C761.299 729.522 773.848 721.958 786.496 713.856C799.151 705.749 813.264 698.345 828.836 691.646C844.408 684.946 863.691 681.597 886.687 681.597C909.682 681.597 929.078 685.047 944.875 691.947C960.672 698.854 975.127 706.459 988.238 714.762C1001.36 723.064 1014.61 730.705 1027.99 737.685C1041.38 744.664 1057.04 748.154 1074.96 748.154C1093.03 748.154 1108.73 744.668 1122.04 737.694C1135.36 730.721 1148.58 723.079 1161.7 714.771C1174.81 706.462 1189.33 698.854 1205.25 691.947C1221.18 685.047 1240.55 681.597 1263.36 681.597ZM1269.64 502.333C1292.64 502.333 1311.79 505.507 1327.1 511.853C1342.4 518.198 1356.44 525.431 1369.19 533.551C1381.95 541.677 1394.59 549.33 1407.12 556.511C1419.65 563.698 1434.61 567.901 1452 569.12V638C1449.97 637.925 1447.97 637.823 1446 637.696V649.886C1423.87 649.069 1405.33 645.156 1390.39 638.146C1375.45 631.135 1361.57 623.558 1348.75 615.414C1335.94 607.27 1323.1 599.848 1310.25 593.148C1297.4 586.449 1281.79 583.1 1263.43 583.1C1245.33 583.1 1229.55 586.565 1216.11 593.496C1202.67 600.427 1189.39 608.053 1176.27 616.374C1163.15 624.695 1148.71 632.361 1132.96 639.371C1117.21 646.381 1097.89 649.886 1075.01 649.886C1052.13 649.886 1032.8 646.387 1017.03 639.389C1001.26 632.397 986.828 624.737 973.741 616.41C960.654 608.077 947.405 600.443 933.995 593.506C920.591 586.569 904.791 583.1 886.595 583.1C868.404 583.1 852.759 586.449 839.66 593.148C826.555 599.848 813.684 607.27 801.048 615.414C788.405 623.558 774.597 631.135 759.622 638.146C744.879 645.05 726.672 648.947 705 649.844V649.886C704.833 649.88 704.666 649.871 704.499 649.864C704.333 649.871 704.167 649.88 704 649.886V649.844C682.281 648.947 664.051 645.05 649.312 638.146C634.354 631.135 620.456 623.558 607.62 615.414C594.79 607.27 581.938 599.848 569.065 593.148C556.199 586.449 540.572 583.1 522.187 583.1C504.057 583.1 488.263 586.565 474.805 593.496C461.346 600.427 448.046 608.053 434.904 616.374C421.769 624.695 407.314 632.361 391.538 639.371C375.762 646.381 356.419 649.886 333.509 649.886C310.599 649.886 291.246 646.387 275.452 639.389C259.658 632.397 245.209 624.737 232.104 616.41C219 608.077 205.733 600.443 192.306 593.506C178.884 586.569 163.062 583.1 144.841 583.1C126.626 583.1 110.961 586.449 97.8438 593.148C84.7207 599.848 71.8322 607.27 59.1787 615.414C46.5191 623.558 32.6914 631.135 17.6963 638.146C2.70731 645.156 -15.8581 649.069 -38 649.886V580.786C-35.9659 580.644 -33.9661 580.459 -32 580.236V569.12C-14.5109 567.901 0.462612 563.685 12.9209 556.474C25.3792 549.262 37.9417 541.609 50.6074 533.514C63.2791 525.418 77.4113 518.198 93.0039 511.853C108.597 505.507 127.906 502.333 150.933 502.333C173.959 502.333 193.381 505.787 209.199 512.693C225.018 519.6 239.492 527.241 252.621 535.617C265.756 543.987 279.025 551.665 292.429 558.65C305.838 565.63 321.516 569.12 339.463 569.12C357.556 569.12 373.271 565.615 386.607 558.604C399.944 551.594 413.18 543.917 426.315 535.571C439.444 527.226 453.982 519.6 469.929 512.693C485.875 505.787 505.364 502.333 528.396 502.333C551.423 502.333 570.601 505.507 585.932 511.853C601.256 518.198 615.307 525.431 628.082 533.551C640.851 541.676 653.511 549.33 666.061 556.511C678.484 563.629 693.297 567.818 710.5 569.082C727.751 567.818 742.539 563.616 754.861 556.474C767.303 549.262 779.848 541.609 792.496 533.514C805.151 525.418 819.264 518.198 834.836 511.853C850.408 505.507 869.691 502.333 892.687 502.333C915.682 502.333 935.078 505.787 950.875 512.693C966.672 519.6 981.127 527.241 994.238 535.617C1007.36 543.987 1020.61 551.665 1033.99 558.65C1047.38 565.63 1063.04 569.12 1080.96 569.12C1099.03 569.12 1114.73 565.615 1128.04 558.604C1141.36 551.594 1154.58 543.917 1167.7 535.571C1180.81 527.226 1195.33 519.6 1211.25 512.693C1227.18 505.787 1246.64 502.333 1269.64 502.333ZM1269.36 334.965C1292.58 334.965 1311.84 338.138 1327.13 344.483C1342.41 350.823 1356.44 358.02 1369.19 366.072C1381.95 374.119 1394.59 381.736 1407.12 388.923C1419.65 396.11 1434.61 400.313 1452 401.532V470.623C1429.87 469.002 1411.33 464.582 1396.39 457.364C1381.45 450.153 1367.57 442.6 1354.75 434.706C1341.94 426.818 1329.1 419.7 1316.25 413.354C1303.4 407.015 1287.81 403.846 1269.5 403.846C1251.17 403.846 1235.37 407.305 1222.1 414.224C1208.82 421.148 1195.54 428.796 1182.27 437.165C1168.99 445.541 1154.52 453.213 1138.84 460.181C1123.17 467.142 1103.89 470.623 1081.01 470.623C1058.13 470.623 1038.8 467.127 1023.03 460.135C1007.26 453.143 992.828 445.48 979.741 437.147C966.654 428.82 953.405 421.188 939.995 414.251C926.591 407.314 910.791 403.846 892.595 403.846C874.404 403.846 858.759 407.195 845.66 413.895C832.555 420.594 819.684 428.015 807.048 436.159C794.405 444.303 780.597 451.881 765.622 458.892C750.879 465.796 732.672 469.69 711 470.581V470.623C710.883 470.615 710.766 470.604 710.649 470.596C710.433 470.604 710.217 470.615 710 470.623V470.545C688.281 468.865 670.051 464.473 655.312 457.364C640.354 450.153 626.456 442.6 613.62 434.706C600.79 426.818 587.938 419.7 575.065 413.354C562.199 407.015 546.593 403.846 528.25 403.846C509.901 403.846 494.08 407.305 480.786 414.224C467.492 421.149 454.198 428.795 440.904 437.165C427.611 445.541 413.115 453.213 397.419 460.181C381.723 467.142 362.419 470.623 339.509 470.623C316.599 470.623 297.246 467.127 281.452 460.135C265.658 453.143 251.209 445.48 238.104 437.147C225 428.821 211.734 421.188 198.306 414.251C184.884 407.314 169.062 403.846 150.841 403.846C132.626 403.846 116.961 407.195 103.844 413.895C90.7208 420.594 77.8321 428.015 65.1787 436.159C52.5191 444.303 38.6914 451.881 23.6963 458.892C8.70734 465.902 -9.85817 469.812 -32 470.623V401.532C-14.5109 400.313 0.462612 396.112 12.9209 388.932C25.3792 381.751 37.9417 374.134 50.6074 366.081C63.2791 358.022 77.4113 350.823 93.0039 344.483C108.597 338.138 127.906 334.965 150.933 334.965C173.959 334.965 193.381 338.419 209.199 345.325C225.018 352.226 239.492 359.827 252.621 368.13C265.756 376.432 279.025 384.073 292.429 391.053C305.838 398.039 321.516 401.532 339.463 401.532C357.556 401.532 373.271 398.042 386.607 391.062C399.944 384.089 413.18 376.447 426.315 368.139C439.444 359.83 453.982 352.226 469.929 345.325C485.875 338.419 505.27 334.965 528.113 334.965C551.365 334.965 570.647 338.138 585.959 344.483C601.265 350.823 615.307 358.02 628.082 366.072C640.851 374.119 653.511 381.736 666.061 388.923C678.484 396.041 693.297 400.23 710.5 401.494C727.751 400.23 742.539 396.044 754.861 388.932C767.303 381.751 779.848 374.134 792.496 366.081C805.151 358.022 819.264 350.823 834.836 344.483C850.408 338.138 869.691 334.965 892.687 334.965C915.682 334.965 935.078 338.419 950.875 345.325C966.672 352.226 981.127 359.827 994.238 368.13C1007.36 376.432 1020.61 384.073 1033.99 391.053C1047.38 398.039 1063.04 401.532 1080.96 401.532C1099.03 401.532 1114.73 398.042 1128.04 391.062C1141.36 384.089 1154.58 376.447 1167.7 368.139C1180.81 359.83 1195.33 352.226 1211.25 345.325C1227.18 338.419 1246.55 334.965 1269.36 334.965ZM1269.36 167.597C1292.58 167.597 1311.84 170.946 1327.13 177.646C1342.41 184.345 1356.44 191.745 1369.19 199.847C1381.95 207.942 1394.59 215.507 1407.12 222.542C1419.65 229.57 1434.61 233.441 1452 234.154V303.254C1429.87 302.443 1411.33 298.533 1396.39 291.522C1381.45 284.512 1367.57 276.935 1354.75 268.791C1341.94 260.647 1329.1 253.226 1316.25 246.526C1303.4 239.821 1287.79 236.468 1269.43 236.468C1251.33 236.468 1235.55 239.933 1222.11 246.864C1208.67 253.795 1195.39 261.421 1182.27 269.742C1169.15 278.063 1154.71 285.729 1138.96 292.739C1123.21 299.749 1103.89 303.254 1081.01 303.254C1058.13 303.254 1038.8 299.759 1023.03 292.767C1007.26 285.769 992.828 278.106 979.741 269.779C966.654 261.452 953.405 253.817 939.995 246.874C926.591 239.937 910.791 236.468 892.595 236.468C874.404 236.468 858.759 239.821 845.66 246.526C832.555 253.226 819.684 260.647 807.048 268.791C794.405 276.935 780.597 284.512 765.622 291.522C750.879 298.427 732.672 302.321 711 303.212V303.254C710.833 303.248 710.666 303.239 710.499 303.232C710.333 303.239 710.167 303.248 710 303.254V303.212C688.281 302.321 670.051 298.427 655.312 291.522C640.354 284.512 626.456 276.935 613.62 268.791C600.79 260.647 587.938 253.226 575.065 246.526C562.199 239.821 546.572 236.468 528.187 236.468C510.057 236.468 494.263 239.933 480.805 246.864C467.346 253.795 454.046 261.421 440.904 269.742C427.769 278.063 413.314 285.729 397.538 292.739C381.762 299.749 362.419 303.254 339.509 303.254C316.599 303.254 297.246 299.759 281.452 292.767C265.658 285.769 251.209 278.106 238.104 269.779C225 261.452 211.733 253.817 198.306 246.874C184.884 239.937 169.062 236.468 150.841 236.468C132.626 236.468 116.961 239.821 103.844 246.526C90.7208 253.226 77.8321 260.647 65.1787 268.791C52.5191 276.935 38.6914 284.512 23.6963 291.522C8.70728 298.533 -9.85801 302.443 -32 303.254V234.154C-14.5291 233.441 0.441578 229.573 12.9121 222.551C25.3765 215.522 37.9418 207.958 50.6074 199.856C63.2792 191.749 77.4112 184.345 93.0039 177.646C108.597 170.946 127.906 167.597 150.933 167.597C173.959 167.597 193.381 171.047 209.199 177.947C225.018 184.854 239.492 192.459 252.621 200.762C265.756 209.064 279.025 216.705 292.429 223.685C305.838 230.664 321.516 234.154 339.463 234.154C357.556 234.154 373.271 230.668 386.607 223.694C399.944 216.721 413.18 209.079 426.315 200.771C439.444 192.462 453.982 184.854 469.929 177.947C485.875 171.047 505.27 167.597 528.113 167.597C551.365 167.597 570.647 170.946 585.959 177.646C601.265 184.345 615.307 191.745 628.082 199.847C640.851 207.942 653.511 215.507 666.061 222.542C678.484 229.503 693.297 233.365 710.5 234.131C727.733 233.365 742.517 229.506 754.852 222.551C767.299 215.522 779.848 207.958 792.496 199.856C805.151 191.749 819.264 184.345 834.836 177.646C850.408 170.946 869.691 167.597 892.687 167.597C915.682 167.597 935.078 171.047 950.875 177.947C966.672 184.854 981.127 192.459 994.238 200.762C1007.36 209.064 1020.61 216.705 1033.99 223.685C1047.38 230.664 1063.04 234.154 1080.96 234.154C1099.03 234.154 1114.73 230.668 1128.04 223.694C1141.36 216.721 1154.58 209.079 1167.7 200.771C1180.81 192.462 1195.33 184.854 1211.25 177.947C1227.18 171.047 1246.55 167.597 1269.36 167.597ZM1269.36 0C1292.58 1.68645e-05 1311.84 3.17277 1327.13 9.51855C1342.41 15.8643 1356.44 23.0971 1369.19 31.2168C1381.95 39.3426 1394.59 46.9958 1407.12 54.1768C1419.65 61.3638 1434.61 65.567 1452 66.7861V135.886C1429.87 135.069 1411.33 131.156 1396.39 124.146C1381.45 117.135 1367.57 109.558 1354.75 101.414C1341.94 93.27 1329.1 85.8478 1316.25 79.1484C1303.4 72.4492 1287.79 69.0996 1269.43 69.0996C1251.33 69.0996 1235.55 72.5652 1222.11 79.4961C1208.67 86.427 1195.39 94.0532 1182.27 102.374C1169.15 110.695 1154.71 118.361 1138.96 125.371C1123.21 132.381 1103.89 135.886 1081.01 135.886C1058.13 135.886 1038.8 132.387 1023.03 125.389C1007.26 118.397 992.828 110.737 979.741 102.41C966.654 94.0771 953.405 86.443 939.995 79.5059C926.591 72.5688 910.791 69.0996 892.595 69.0996C874.404 69.0997 858.759 72.4491 845.66 79.1484C832.555 85.8478 819.684 93.27 807.048 101.414C794.405 109.558 780.597 117.135 765.622 124.146C750.879 131.05 732.672 134.947 711 135.844V135.886C710.833 135.88 710.666 135.871 710.499 135.864C710.333 135.871 710.167 135.88 710 135.886V135.844C688.281 134.947 670.051 131.05 655.312 124.146C640.354 117.135 626.456 109.558 613.62 101.414C600.79 93.27 587.938 85.8478 575.065 79.1484C562.199 72.4491 546.572 69.0996 528.187 69.0996C510.057 69.0996 494.263 72.5652 480.805 79.4961C467.346 86.4271 454.046 94.0532 440.904 102.374C427.769 110.695 413.314 118.361 397.538 125.371C381.762 132.381 362.419 135.886 339.509 135.886C316.599 135.886 297.246 132.387 281.452 125.389C265.658 118.397 251.209 110.737 238.104 102.41C225 94.0772 211.733 86.4429 198.306 79.5059C184.884 72.5688 169.062 69.0996 150.841 69.0996C132.626 69.0997 116.961 72.4492 103.844 79.1484C90.7207 85.8478 77.8322 93.27 65.1787 101.414C52.5191 109.558 38.6914 117.135 23.6963 124.146C8.70731 131.156 -9.85809 135.069 -32 135.886V66.7861C-14.511 65.567 0.462646 61.3519 12.9209 54.1406C25.3792 46.9292 37.9418 39.276 50.6074 31.1807C63.2792 23.0853 77.4085 15.8644 92.9951 9.51855C108.582 3.1728 127.882 0 150.896 0C173.916 3.95272e-05 193.341 3.47827 209.172 10.4336C225.009 17.389 239.492 25.0268 252.621 33.3477C265.756 41.6745 279.025 49.3306 292.429 56.3164C305.838 63.2961 321.516 66.7861 339.463 66.7861C357.556 66.7861 373.271 63.2816 386.607 56.2715C399.944 49.2612 413.189 41.607 426.343 33.3105C439.496 25.0142 454.037 17.3889 469.965 10.4336C485.887 3.4782 505.27 0 528.113 0C551.365 2.32243e-05 570.647 3.17285 585.959 9.51855C601.265 15.8644 615.307 23.0971 628.082 31.2168C640.851 39.3425 653.511 46.9959 666.061 54.1768C678.484 61.2949 693.297 65.4839 710.5 66.748C727.751 65.4838 742.539 61.2831 754.861 54.1406C767.303 46.9293 779.848 39.2759 792.496 31.1807C805.151 23.0853 819.261 15.8644 834.827 9.51855C850.393 3.17286 869.667 0 892.65 0C915.639 4.55871e-05 935.039 3.47825 950.848 10.4336C966.663 17.389 981.127 25.0268 994.238 33.3477C1007.36 41.6745 1020.61 49.3307 1033.99 56.3164C1047.38 63.2962 1063.04 66.7861 1080.96 66.7861C1099.03 66.7861 1114.73 63.2816 1128.04 56.2715C1141.36 49.2612 1154.59 41.607 1167.73 33.3105C1180.86 25.0142 1195.38 17.3889 1211.29 10.4336C1227.19 3.4782 1246.55 0 1269.36 0Z" fill="#151515"/>
</svg>
