<svg width="1440" height="847" viewBox="0 0 1440 847" fill="none" xmlns="http://www.w3.org/2000/svg">
<path fill-rule="evenodd" clip-rule="evenodd" d="M1536.8 766.661C1555.1 766.661 1570.45 768.961 1582.85 773.561C1595.25 778.166 1606.75 783.39 1617.35 789.234C1627.95 795.079 1638.46 800.901 1648.88 806.7C1659.29 812.494 1671.67 816.379 1686 818.355V845.711C1670.92 843.964 1657.71 840.285 1646.38 834.675C1635.04 829.065 1623.93 823.265 1613.04 817.275C1602.16 811.286 1590.74 805.911 1578.78 801.149C1566.82 796.388 1552.85 794.007 1536.87 794.007C1520.79 794.007 1506.34 796.767 1493.52 802.288C1480.69 807.803 1468.02 813.829 1455.49 820.365C1442.97 826.896 1429.81 832.969 1416.01 838.585C1402.21 844.195 1386.21 847 1368 847C1349.79 847 1333.79 844.195 1319.99 838.585C1306.19 832.969 1293.03 826.896 1280.51 820.365C1267.98 813.829 1255.36 807.803 1242.62 802.288C1229.89 796.768 1215.51 794.007 1199.49 794.007C1183.46 794.007 1169.4 796.388 1157.3 801.149C1145.2 805.911 1133.73 811.286 1122.89 817.275C1112.05 823.265 1100.96 829.065 1089.62 834.675C1078.29 840.285 1065.08 843.964 1050 845.711C1034.92 843.964 1021.71 840.285 1010.38 834.675C999.04 829.065 987.928 823.265 977.044 817.275C966.16 811.286 954.737 805.911 942.775 801.149C930.82 796.388 916.85 794.007 900.866 794.007C884.788 794.007 870.338 796.767 857.518 802.288C844.692 807.803 832.017 813.829 819.492 820.365C806.968 826.896 793.806 832.969 780.01 838.585C766.213 844.195 750.21 847 732 847C713.79 847 697.787 844.195 683.99 838.585C670.194 832.969 657.032 826.896 644.508 820.365C631.983 813.829 619.355 807.803 606.624 802.288C593.893 796.768 579.513 794.007 563.485 794.007C547.457 794.007 533.395 796.388 521.3 801.149C509.205 805.911 497.734 811.286 486.889 817.275C476.049 823.265 464.96 829.065 453.624 834.675C442.288 840.285 429.08 843.964 414 845.711C398.92 843.964 385.712 840.285 374.376 834.675C363.04 829.065 351.928 823.265 341.044 817.275C330.159 811.286 318.737 805.911 306.775 801.149C294.82 796.388 280.85 794.007 264.866 794.007C248.788 794.007 234.338 796.767 221.518 802.288C208.692 807.803 196.017 813.829 183.492 820.365C170.967 826.896 157.806 832.969 144.01 838.585C130.213 844.195 114.21 847 96 847C77.7903 847 61.787 844.195 47.9902 838.585C34.1935 832.969 21.0325 826.896 8.50781 820.365C-4.01682 813.829 -16.6449 807.803 -29.376 802.288C-42.107 796.768 -56.4865 794.007 -72.5146 794.007C-88.543 794.007 -102.605 796.388 -114.7 801.149C-126.795 805.911 -138.266 811.286 -149.111 817.275C-159.951 823.265 -171.04 829.065 -182.376 834.675C-193.712 840.285 -206.92 843.964 -222 845.711V818.355C-207.623 816.379 -195.237 812.494 -184.844 806.7C-174.45 800.901 -163.976 795.079 -153.421 789.234C-142.866 783.39 -131.317 778.166 -118.775 773.561C-106.239 768.961 -90.8192 766.661 -72.5146 766.661C-54.2102 766.661 -38.3044 769.419 -24.7979 774.934C-11.2858 780.454 1.67136 786.552 14.0732 793.229C26.4752 799.905 39.0782 805.978 51.8818 811.448C64.6855 816.913 79.3916 819.646 96 819.646C112.608 819.646 127.315 816.913 140.118 811.448C152.922 805.978 165.525 799.905 177.927 793.229C190.329 786.552 203.33 780.454 216.932 774.934C230.539 769.419 246.495 766.661 264.8 766.661C283.099 766.661 298.449 768.961 310.851 773.561C323.253 778.166 334.754 783.39 345.354 789.234C355.954 795.079 366.462 800.901 376.878 806.7C387.294 812.494 399.668 816.379 414 818.355C428.377 816.379 440.763 812.494 451.156 806.7C461.55 800.901 472.024 795.079 482.579 789.234C493.134 783.39 504.683 778.166 517.225 773.561C529.76 768.961 545.181 766.661 563.485 766.661C581.79 766.661 597.696 769.419 611.202 774.934C624.714 780.454 637.671 786.552 650.073 793.229C662.475 799.905 675.078 805.978 687.882 811.448C700.685 816.913 715.392 819.646 732 819.646C748.608 819.646 763.315 816.913 776.118 811.448C788.922 805.978 801.525 799.905 813.927 793.229C826.329 786.552 839.33 780.454 852.932 774.934C866.539 769.419 882.495 766.661 900.8 766.661C919.099 766.661 934.449 768.961 946.851 773.561C959.253 778.166 970.754 783.39 981.354 789.234C991.954 795.079 1002.46 800.901 1012.88 806.7C1023.29 812.494 1035.67 816.379 1050 818.355C1064.38 816.379 1076.76 812.494 1087.16 806.7C1097.55 800.901 1108.02 795.079 1118.58 789.234C1129.13 783.39 1140.68 778.166 1153.22 773.561C1165.76 768.961 1181.18 766.661 1199.49 766.661C1217.79 766.661 1233.7 769.419 1247.2 774.934C1260.71 780.454 1273.67 786.552 1286.07 793.229C1298.48 799.905 1311.08 805.978 1323.88 811.448C1336.69 816.913 1351.39 819.646 1368 819.646C1384.61 819.646 1399.31 816.913 1412.12 811.448C1424.92 805.978 1437.52 799.905 1449.93 793.229C1462.33 786.552 1475.33 780.454 1488.93 774.934C1502.54 769.419 1518.5 766.661 1536.8 766.661ZM1536.87 638.913C1555.12 638.913 1570.45 641.144 1582.85 645.604C1595.25 650.064 1606.75 655.288 1617.35 661.277C1627.95 667.267 1638.46 673.09 1648.88 678.744C1659.29 684.399 1671.67 688.357 1686 690.617V717.963C1670.92 715.764 1657.71 711.837 1646.38 706.183C1635.04 700.528 1623.93 694.728 1613.04 688.783C1602.16 682.833 1590.74 677.522 1578.78 672.85C1566.82 668.177 1552.85 665.841 1536.87 665.841C1520.75 665.841 1506.3 668.598 1493.52 674.113C1480.74 679.634 1468.13 685.733 1455.71 692.409C1443.28 699.085 1430.11 705.228 1416.19 710.838C1402.27 716.448 1386.21 719.253 1368 719.253C1349.79 719.253 1333.79 716.448 1319.99 710.838C1306.19 705.228 1293.03 699.085 1280.51 692.409C1267.98 685.733 1255.36 679.634 1242.62 674.113C1229.89 668.598 1215.51 665.841 1199.49 665.841C1183.46 665.841 1169.4 668.291 1157.3 673.192C1145.2 678.093 1133.73 683.539 1122.89 689.528C1112.05 695.518 1100.96 701.32 1089.62 706.936C1078.29 712.545 1065.08 716.221 1050 717.963C1034.92 715.764 1021.71 711.837 1010.38 706.183C999.04 700.528 987.928 694.728 977.044 688.783C966.159 682.833 954.737 677.522 942.775 672.85C930.82 668.177 916.85 665.841 900.866 665.841C884.749 665.841 870.299 668.598 857.518 674.113C844.736 679.634 832.133 685.733 819.709 692.409C807.285 699.085 794.113 705.228 780.193 710.838C766.274 716.448 750.21 719.253 732 719.253C713.79 719.253 697.787 716.448 683.99 710.838C670.193 705.228 657.033 699.085 644.508 692.409C631.983 685.733 619.355 679.634 606.624 674.113C593.893 668.598 579.513 665.841 563.485 665.841C547.457 665.841 533.395 668.291 521.3 673.192C509.205 678.093 497.734 683.539 486.889 689.528C476.049 695.518 464.96 701.32 453.624 706.936C442.288 712.545 429.08 716.221 414 717.963C398.92 715.764 385.712 711.837 374.376 706.183C363.04 700.528 351.928 694.728 341.044 688.783C330.159 682.833 318.737 677.522 306.775 672.85C294.82 668.177 280.85 665.841 264.866 665.841C248.749 665.841 234.299 668.598 221.518 674.113C208.736 679.634 196.133 685.733 183.709 692.409C171.285 699.085 158.113 705.228 144.193 710.838C130.274 716.448 114.21 719.253 96 719.253C77.7903 719.253 61.787 716.448 47.9902 710.838C34.1935 705.228 21.0325 699.085 8.50781 692.409C-4.01691 685.733 -16.6449 679.634 -29.376 674.113C-42.107 668.598 -56.4866 665.841 -72.5146 665.841C-88.543 665.841 -102.605 668.291 -114.7 673.192C-126.795 678.093 -138.266 683.539 -149.111 689.528C-159.951 695.518 -171.04 701.32 -182.376 706.936C-193.712 712.545 -206.92 716.221 -222 717.963V690.617C-207.623 688.356 -195.237 684.399 -184.844 678.744C-174.45 673.09 -163.976 667.267 -153.421 661.277C-142.866 655.288 -131.317 650.064 -118.775 645.604C-106.24 641.143 -90.8191 638.913 -72.5146 638.913C-54.2102 638.913 -38.3044 641.674 -24.7979 647.194C-11.2858 652.709 1.67134 658.735 14.0732 665.271C26.4753 671.802 39.0782 677.876 51.8818 683.491C64.6855 689.101 79.3915 691.906 96 691.906C112.609 691.906 127.314 689.101 140.118 683.491C152.922 677.876 165.525 671.802 177.927 665.271C190.329 658.735 203.33 652.709 216.932 647.194C230.539 641.674 246.517 638.913 264.866 638.913C283.12 638.913 298.449 641.144 310.851 645.604C323.252 650.064 334.754 655.288 345.354 661.277C355.954 667.267 366.462 673.09 376.878 678.744C387.294 684.399 399.668 688.357 414 690.617C428.377 688.356 440.763 684.399 451.156 678.744C461.55 673.09 472.024 667.267 482.579 661.277C493.134 655.288 504.683 650.064 517.225 645.604C529.76 641.143 545.181 638.913 563.485 638.913C581.79 638.913 597.696 641.674 611.202 647.194C624.714 652.709 637.671 658.735 650.073 665.271C662.475 671.802 675.078 677.876 687.882 683.491C700.685 689.101 715.391 691.906 732 691.906C748.609 691.906 763.315 689.101 776.118 683.491C788.922 677.876 801.525 671.802 813.927 665.271C826.329 658.735 839.33 652.709 852.932 647.194C866.539 641.674 882.517 638.913 900.866 638.913C919.12 638.913 934.449 641.144 946.851 645.604C959.252 650.064 970.754 655.288 981.354 661.277C991.954 667.267 1002.46 673.09 1012.88 678.744C1023.29 684.399 1035.67 688.357 1050 690.617C1064.38 688.356 1076.76 684.399 1087.16 678.744C1097.55 673.09 1108.02 667.267 1118.58 661.277C1129.13 655.288 1140.68 650.064 1153.22 645.604C1165.76 641.143 1181.18 638.913 1199.49 638.913C1217.79 638.913 1233.7 641.674 1247.2 647.194C1260.71 652.709 1273.67 658.735 1286.07 665.271C1298.48 671.802 1311.08 677.876 1323.88 683.491C1336.69 689.101 1351.39 691.906 1368 691.906C1384.61 691.906 1399.31 689.101 1412.12 683.491C1424.92 677.876 1437.52 671.802 1449.93 665.271C1462.33 658.735 1475.33 652.709 1488.93 647.194C1502.54 641.674 1518.52 638.913 1536.87 638.913ZM1536.87 510.747C1555.12 510.747 1570.45 513.089 1582.85 517.772C1595.25 522.461 1606.75 527.801 1617.35 533.79C1627.95 539.78 1638.46 545.58 1648.88 551.189C1659.29 556.805 1671.67 560.698 1686 562.869V589.797C1670.92 588.334 1657.71 584.798 1646.38 579.188C1635.04 573.579 1623.93 567.706 1613.04 561.571C1602.16 555.442 1590.74 549.998 1578.78 545.236C1566.82 540.475 1552.85 538.094 1536.87 538.094C1520.79 538.094 1506.34 540.854 1493.52 546.375C1480.69 551.89 1468.02 557.916 1455.49 564.452C1442.97 570.983 1429.81 577.053 1416.01 582.663C1402.21 588.279 1386.21 591.087 1368 591.087C1349.79 591.087 1333.79 588.279 1319.99 582.663C1306.19 577.053 1293.03 570.983 1280.51 564.452C1267.98 557.916 1255.36 551.89 1242.62 546.375C1229.89 540.854 1215.51 538.094 1199.49 538.094C1183.46 538.094 1169.4 540.475 1157.3 545.236C1145.2 549.998 1133.73 555.442 1122.89 561.571C1112.05 567.706 1100.96 573.579 1089.62 579.188C1078.29 584.798 1065.08 588.334 1050 589.797C1034.92 588.334 1021.71 584.798 1010.38 579.188C999.04 573.579 987.928 567.706 977.044 561.571C966.16 555.442 954.736 549.998 942.775 545.236C930.82 540.475 916.85 538.094 900.866 538.094C884.788 538.094 870.338 540.854 857.518 546.375C844.692 551.89 832.017 557.916 819.492 564.452C806.968 570.983 793.806 577.053 780.01 582.663C766.213 588.279 750.21 591.087 732 591.087C713.79 591.087 697.787 588.279 683.99 582.663C670.194 577.053 657.032 570.983 644.508 564.452C631.983 557.916 619.355 551.89 606.624 546.375C593.893 540.854 579.514 538.094 563.485 538.094C547.457 538.094 533.395 540.475 521.3 545.236C509.205 549.998 497.734 555.442 486.889 561.571C476.049 567.706 464.96 573.579 453.624 579.188C442.288 584.798 429.08 588.334 414 589.797C398.92 588.334 385.712 584.798 374.376 579.188C363.04 573.579 351.928 567.706 341.044 561.571C330.16 555.442 318.737 549.998 306.775 545.236C294.82 540.475 280.85 538.094 264.866 538.094C248.788 538.094 234.338 540.854 221.518 546.375C208.692 551.89 196.017 557.916 183.492 564.452C170.967 570.983 157.806 577.053 144.01 582.663C130.213 588.279 114.21 591.087 96 591.087C77.7903 591.087 61.787 588.279 47.9902 582.663C34.1936 577.053 21.0325 570.983 8.50781 564.452C-4.01686 557.916 -16.6449 551.89 -29.376 546.375C-42.107 540.854 -56.4865 538.094 -72.5146 538.094C-88.543 538.094 -102.605 540.475 -114.7 545.236C-126.795 549.998 -138.266 555.442 -149.111 561.571C-159.951 567.706 -171.04 573.579 -182.376 579.188C-193.712 584.798 -206.92 588.334 -222 589.797V562.869C-207.623 560.698 -195.237 556.805 -184.844 551.189C-174.45 545.58 -163.976 539.779 -153.421 533.79C-142.866 527.801 -131.317 522.461 -118.775 517.772C-106.24 513.089 -90.8191 510.747 -72.5146 510.747C-54.2102 510.747 -38.3044 513.505 -24.7979 519.02C-11.2857 524.54 1.67128 530.639 14.0732 537.315C26.4752 543.991 39.0782 550.134 51.8818 555.744C64.6855 561.354 79.3915 564.159 96 564.159C112.608 564.159 127.315 561.354 140.118 555.744C152.922 550.134 165.525 543.991 177.927 537.315C190.329 530.639 203.33 524.54 216.932 519.02C230.539 513.505 246.517 510.747 264.866 510.747C283.12 510.747 298.449 513.089 310.851 517.772C323.253 522.461 334.754 527.801 345.354 533.79C355.954 539.78 366.462 545.58 376.878 551.189C387.294 556.805 399.668 560.698 414 562.869C428.377 560.698 440.763 556.805 451.156 551.189C461.55 545.58 472.024 539.779 482.579 533.79C493.134 527.801 504.683 522.461 517.225 517.772C529.76 513.089 545.181 510.747 563.485 510.747C581.79 510.747 597.696 513.505 611.202 519.02C624.714 524.54 637.671 530.639 650.073 537.315C662.475 543.991 675.078 550.134 687.882 555.744C700.685 561.354 715.392 564.159 732 564.159C748.608 564.159 763.315 561.354 776.118 555.744C788.922 550.134 801.525 543.991 813.927 537.315C826.329 530.639 839.33 524.54 852.932 519.02C866.539 513.505 882.517 510.747 900.866 510.747C919.12 510.747 934.449 513.089 946.851 517.772C959.253 522.461 970.754 527.801 981.354 533.79C991.954 539.78 1002.46 545.58 1012.88 551.189C1023.29 556.805 1035.67 560.698 1050 562.869C1064.38 560.698 1076.76 556.805 1087.16 551.189C1097.55 545.58 1108.02 539.779 1118.58 533.79C1129.13 527.801 1140.68 522.461 1153.22 517.772C1165.76 513.089 1181.18 510.747 1199.49 510.747C1217.79 510.747 1233.7 513.505 1247.2 519.02C1260.71 524.54 1273.67 530.639 1286.07 537.315C1298.48 543.991 1311.08 550.134 1323.88 555.744C1336.69 561.354 1351.39 564.159 1368 564.159C1384.61 564.159 1399.31 561.354 1412.12 555.744C1424.92 550.134 1437.52 543.991 1449.93 537.315C1462.33 530.639 1475.33 524.54 1488.93 519.02C1502.54 513.505 1518.52 510.747 1536.87 510.747ZM1536.87 383C1555.12 383 1570.45 385.303 1582.85 389.908C1595.25 394.508 1606.75 399.729 1617.35 405.573C1627.95 411.423 1638.46 417.175 1648.88 422.83C1659.29 428.485 1671.67 432.442 1686 434.703V462.05C1684.99 461.933 1683.99 461.807 1683 461.673V462.711C1667.92 460.964 1654.71 457.285 1643.38 451.675C1632.04 446.065 1620.93 440.265 1610.04 434.275C1599.16 428.286 1587.74 422.911 1575.78 418.149C1563.82 413.388 1549.85 411.007 1533.87 411.007C1524.25 411.007 1515.21 411.995 1506.76 413.971C1502.17 415.16 1497.75 416.641 1493.52 418.418C1480.69 423.793 1468.02 429.819 1455.49 436.495C1442.97 443.171 1429.81 449.315 1416.01 454.925C1410.17 457.298 1403.94 459.167 1397.31 460.536C1387.45 462.844 1376.68 464 1365 464C1346.79 464 1330.79 461.195 1316.99 455.585C1303.19 449.969 1290.03 443.896 1277.51 437.365C1264.98 430.829 1252.36 424.803 1239.62 419.288C1226.89 413.768 1212.51 411.007 1196.49 411.007C1187.11 411.007 1178.41 411.823 1170.38 413.451C1165.79 414.522 1161.43 415.871 1157.3 417.497C1145.2 422.253 1133.73 427.626 1122.89 433.615C1112.05 439.605 1100.96 445.405 1089.62 451.015C1081.64 454.967 1072.74 457.958 1062.9 459.991C1057.85 461.159 1052.55 462.067 1047 462.711C1031.92 460.964 1018.71 457.285 1007.38 451.675C996.04 446.065 984.928 440.265 974.044 434.275C963.16 428.286 951.737 422.911 939.775 418.149C927.82 413.388 913.85 411.007 897.866 411.007C888.249 411.007 879.214 411.995 870.763 413.971C866.17 415.16 861.754 416.641 857.518 418.418C844.692 423.793 832.017 429.819 819.492 436.495C806.967 443.171 793.807 449.315 780.01 454.925C774.173 457.298 767.94 459.167 761.313 460.536C751.45 462.844 740.679 464 729 464C710.79 464 694.787 461.195 680.99 455.585C667.194 449.969 654.032 443.896 641.508 437.365C628.983 430.829 616.355 424.803 603.624 419.288C590.893 413.768 576.513 411.007 560.485 411.007C551.111 411.007 542.41 411.823 534.381 413.451C529.791 414.522 525.431 415.871 521.3 417.497C509.205 422.253 497.734 427.626 486.889 433.615C476.049 439.605 464.96 445.405 453.624 451.015C445.644 454.967 436.736 457.958 426.901 459.991C421.855 461.159 416.555 462.067 411 462.711C395.92 460.964 382.712 457.285 371.376 451.675C360.04 446.065 348.928 440.265 338.044 434.275C327.159 428.286 315.737 422.911 303.775 418.149C291.82 413.388 277.85 411.007 261.866 411.007C252.249 411.007 243.214 411.995 234.763 413.971C230.17 415.16 225.754 416.641 221.518 418.418C208.692 423.793 196.017 429.819 183.492 436.495C170.967 443.171 157.806 449.315 144.01 454.925C138.173 457.298 131.94 459.167 125.313 460.536C115.45 462.844 104.679 464 93 464C74.7903 464 58.787 461.195 44.9902 455.585C31.1935 449.969 18.0325 443.896 5.50781 437.365C-7.01682 430.829 -19.6449 424.803 -32.376 419.288C-45.107 413.768 -59.4865 411.007 -75.5146 411.007C-84.8888 411.007 -93.5903 411.823 -101.619 413.451C-106.209 414.522 -110.569 415.871 -114.7 417.497C-126.795 422.253 -138.266 427.626 -149.111 433.615C-159.951 439.605 -171.04 445.405 -182.376 451.015C-190.356 454.967 -199.264 457.958 -209.099 459.991C-214.145 461.159 -219.445 462.067 -225 462.711V435.355C-223.99 435.217 -222.99 435.067 -222 434.909V434.703C-215.862 433.738 -210.087 432.462 -204.675 430.878C-198.58 428.949 -192.969 426.558 -187.844 423.7C-177.45 417.901 -166.976 412.079 -156.421 406.234C-145.866 400.39 -134.317 395.166 -121.775 390.561C-117.381 388.948 -112.632 387.618 -107.529 386.571C-97.3494 384.19 -85.6776 383 -72.5146 383C-54.2102 383 -38.3044 385.761 -24.7979 391.281C-11.2858 396.796 1.67136 402.822 14.0732 409.358C26.4752 415.889 39.0782 421.959 51.8818 427.569C64.6855 433.185 79.3915 435.993 96 435.993C105.949 435.993 115.214 434.984 123.798 432.969C128.446 431.759 132.886 430.255 137.118 428.448C149.922 422.978 162.525 416.905 174.927 410.229C187.329 403.552 200.33 397.454 213.932 391.934C219.66 389.612 225.805 387.78 232.366 386.436C242.216 384.146 253.049 383 264.866 383C283.12 383 298.449 385.303 310.851 389.908C323.252 394.508 334.754 399.729 345.354 405.573C355.954 411.423 366.462 417.175 376.878 422.83C387.294 428.485 399.668 432.442 414 434.703C420.138 433.738 425.913 432.462 431.325 430.878C437.42 428.949 443.031 426.558 448.156 423.7C458.55 417.901 469.024 412.079 479.579 406.234C490.134 400.39 501.683 395.166 514.225 390.561C518.619 388.948 523.368 387.618 528.471 386.571C538.651 384.19 550.322 383 563.485 383C581.79 383 597.696 385.761 611.202 391.281C624.714 396.796 637.671 402.822 650.073 409.358C662.475 415.889 675.078 421.959 687.882 427.569C700.686 433.185 715.391 435.993 732 435.993C741.949 435.993 751.214 434.984 759.798 432.969C764.446 431.759 768.886 430.255 773.118 428.448C785.922 422.978 798.525 416.905 810.927 410.229C823.329 403.552 836.33 397.454 849.932 391.934C855.66 389.612 861.805 387.78 868.366 386.436C878.216 384.146 889.049 383 900.866 383C919.12 383 934.449 385.303 946.851 389.908C959.252 394.508 970.754 399.729 981.354 405.573C991.954 411.423 1002.46 417.175 1012.88 422.83C1023.29 428.485 1035.67 432.442 1050 434.703C1056.14 433.738 1061.91 432.462 1067.33 430.878C1073.42 428.949 1079.03 426.558 1084.16 423.7C1094.55 417.901 1105.02 412.079 1115.58 406.234C1126.13 400.39 1137.68 395.166 1150.22 390.561C1154.62 388.948 1159.37 387.618 1164.47 386.571C1174.65 384.19 1186.32 383 1199.49 383C1217.79 383 1233.7 385.761 1247.2 391.281C1260.71 396.796 1273.67 402.822 1286.07 409.358C1298.48 415.889 1311.08 421.959 1323.88 427.569C1336.69 433.185 1351.39 435.993 1368 435.993C1377.95 435.993 1387.21 434.984 1395.8 432.969C1400.45 431.759 1404.89 430.255 1409.12 428.448C1421.92 422.978 1434.52 416.905 1446.93 410.229C1459.33 403.552 1472.33 397.454 1485.93 391.934C1491.66 389.612 1497.81 387.78 1504.37 386.436C1514.22 384.146 1525.05 383 1536.87 383ZM1533.87 255.913C1552.12 255.913 1567.45 258.144 1579.85 262.604C1592.25 267.064 1603.75 272.288 1614.35 278.277C1624.95 284.267 1635.46 290.09 1645.88 295.744C1656.29 301.399 1668.67 305.357 1683 307.617V334.963C1667.92 332.764 1654.71 328.837 1643.38 323.183C1632.04 317.528 1620.93 311.728 1610.04 305.783C1599.16 299.833 1587.74 294.522 1575.78 289.85C1563.82 285.177 1549.85 282.841 1533.87 282.841C1517.75 282.841 1503.3 285.598 1490.52 291.113C1477.74 296.634 1465.13 302.733 1452.71 309.409C1440.28 316.085 1427.11 322.228 1413.19 327.838C1399.27 333.448 1383.21 336.253 1365 336.253C1346.79 336.253 1330.79 333.448 1316.99 327.838C1303.19 322.228 1290.03 316.085 1277.51 309.409C1264.98 302.733 1252.36 296.634 1239.62 291.113C1226.89 285.598 1212.51 282.841 1196.49 282.841C1180.46 282.841 1166.4 285.291 1154.3 290.192C1142.2 295.093 1130.73 300.539 1119.89 306.528C1109.05 312.518 1097.96 318.32 1086.62 323.936C1075.29 329.545 1062.08 333.221 1047 334.963C1031.92 332.764 1018.71 328.837 1007.38 323.183C996.04 317.528 984.928 311.728 974.044 305.783C963.159 299.833 951.737 294.522 939.775 289.85C927.82 285.177 913.85 282.841 897.866 282.841C881.749 282.841 867.299 285.598 854.518 291.113C841.736 296.634 829.133 302.733 816.709 309.409C804.285 316.085 791.113 322.228 777.193 327.838C763.274 333.448 747.21 336.253 729 336.253C710.79 336.253 694.787 333.448 680.99 327.838C667.193 322.228 654.033 316.085 641.508 309.409C628.983 302.733 616.355 296.634 603.624 291.113C590.893 285.598 576.513 282.841 560.485 282.841C544.457 282.841 530.395 285.291 518.3 290.192C506.205 295.093 494.734 300.539 483.889 306.528C473.049 312.518 461.96 318.32 450.624 323.936C439.288 329.545 426.08 333.221 411 334.963C395.92 332.764 382.712 328.837 371.376 323.183C360.04 317.528 348.928 311.728 338.044 305.783C327.159 299.833 315.737 294.522 303.775 289.85C291.82 285.177 277.85 282.841 261.866 282.841C245.749 282.841 231.299 285.598 218.518 291.113C205.736 296.634 193.133 302.733 180.709 309.409C168.285 316.085 155.113 322.228 141.193 327.838C127.274 333.448 111.21 336.253 93 336.253C74.7903 336.253 58.787 333.448 44.9902 327.838C31.1935 322.228 18.0325 316.085 5.50781 309.409C-7.01691 302.733 -19.6449 296.634 -32.376 291.113C-45.107 285.598 -59.4866 282.841 -75.5146 282.841C-91.543 282.841 -105.605 285.291 -117.7 290.192C-129.795 295.093 -141.266 300.539 -152.111 306.528C-162.951 312.518 -174.04 318.32 -185.376 323.936C-196.712 329.545 -209.92 333.221 -225 334.963V307.617C-210.623 305.356 -198.237 301.399 -187.844 295.744C-177.45 290.09 -166.976 284.267 -156.421 278.277C-145.866 272.288 -134.317 267.064 -121.775 262.604C-109.24 258.144 -93.8191 255.913 -75.5146 255.913C-57.2102 255.913 -41.3044 258.674 -27.7979 264.194C-14.2858 269.709 -1.32866 275.735 11.0732 282.271C23.4753 288.802 36.0782 294.876 48.8818 300.491C61.6855 306.101 76.3915 308.906 93 308.906C109.609 308.906 124.314 306.101 137.118 300.491C149.922 294.876 162.525 288.802 174.927 282.271C187.329 275.735 200.33 269.709 213.932 264.194C227.539 258.674 243.517 255.913 261.866 255.913C280.12 255.913 295.449 258.144 307.851 262.604C320.252 267.064 331.754 272.288 342.354 278.277C352.954 284.267 363.462 290.09 373.878 295.744C384.294 301.399 396.668 305.357 411 307.617C425.377 305.356 437.763 301.399 448.156 295.744C458.55 290.09 469.024 284.267 479.579 278.277C490.134 272.288 501.683 267.064 514.225 262.604C526.76 258.144 542.181 255.913 560.485 255.913C578.79 255.913 594.696 258.674 608.202 264.194C621.714 269.709 634.671 275.735 647.073 282.271C659.475 288.802 672.078 294.876 684.882 300.491C697.685 306.101 712.391 308.906 729 308.906C745.609 308.906 760.315 306.101 773.118 300.491C785.922 294.876 798.525 288.802 810.927 282.271C823.329 275.735 836.33 269.709 849.932 264.194C863.539 258.674 879.517 255.913 897.866 255.913C916.12 255.913 931.449 258.144 943.851 262.604C956.252 267.064 967.754 272.288 978.354 278.277C988.954 284.267 999.462 290.09 1009.88 295.744C1020.29 301.399 1032.67 305.357 1047 307.617C1061.38 305.356 1073.76 301.399 1084.16 295.744C1094.55 290.09 1105.02 284.267 1115.58 278.277C1126.13 272.288 1137.68 267.064 1150.22 262.604C1162.76 258.144 1178.18 255.913 1196.49 255.913C1214.79 255.913 1230.7 258.674 1244.2 264.194C1257.71 269.709 1270.67 275.735 1283.07 282.271C1295.48 288.802 1308.08 294.876 1320.88 300.491C1333.69 306.101 1348.39 308.906 1365 308.906C1381.61 308.906 1396.31 306.101 1409.12 300.491C1421.92 294.876 1434.52 288.802 1446.93 282.271C1459.33 275.735 1472.33 269.709 1485.93 264.194C1499.54 258.674 1515.52 255.913 1533.87 255.913ZM1533.87 127.747C1552.12 127.747 1567.45 130.089 1579.85 134.772C1592.25 139.461 1603.75 144.801 1614.35 150.79C1624.95 156.78 1635.46 162.58 1645.88 168.189C1656.29 173.805 1668.67 177.698 1683 179.869V206.797C1667.92 205.334 1654.71 201.798 1643.38 196.188C1632.04 190.579 1620.93 184.706 1610.04 178.571C1599.16 172.442 1587.74 166.998 1575.78 162.236C1563.82 157.475 1549.85 155.094 1533.87 155.094C1517.79 155.094 1503.34 157.854 1490.52 163.375C1477.69 168.89 1465.02 174.916 1452.49 181.452C1439.97 187.983 1426.81 194.053 1413.01 199.663C1399.21 205.279 1383.21 208.087 1365 208.087C1346.79 208.087 1330.79 205.279 1316.99 199.663C1303.19 194.053 1290.03 187.983 1277.51 181.452C1264.98 174.916 1252.36 168.89 1239.62 163.375C1226.89 157.854 1212.51 155.094 1196.49 155.094C1180.46 155.094 1166.4 157.475 1154.3 162.236C1142.2 166.998 1130.73 172.442 1119.89 178.571C1109.05 184.706 1097.96 190.579 1086.62 196.188C1075.29 201.798 1062.08 205.334 1047 206.797C1031.92 205.334 1018.71 201.798 1007.38 196.188C996.04 190.579 984.928 184.706 974.044 178.571C963.16 172.442 951.736 166.998 939.775 162.236C927.82 157.475 913.85 155.094 897.866 155.094C881.788 155.094 867.338 157.854 854.518 163.375C841.692 168.89 829.017 174.916 816.492 181.452C803.968 187.983 790.806 194.053 777.01 199.663C763.213 205.279 747.21 208.087 729 208.087C710.79 208.087 694.787 205.279 680.99 199.663C667.194 194.053 654.032 187.983 641.508 181.452C628.983 174.916 616.355 168.89 603.624 163.375C590.893 157.854 576.514 155.094 560.485 155.094C544.457 155.094 530.395 157.475 518.3 162.236C506.205 166.998 494.734 172.442 483.889 178.571C473.049 184.706 461.96 190.579 450.624 196.188C439.288 201.798 426.08 205.334 411 206.797C395.92 205.334 382.712 201.798 371.376 196.188C360.04 190.579 348.928 184.706 338.044 178.571C327.16 172.442 315.737 166.998 303.775 162.236C291.82 157.475 277.85 155.094 261.866 155.094C245.788 155.094 231.338 157.854 218.518 163.375C205.692 168.89 193.017 174.916 180.492 181.452C167.967 187.983 154.806 194.053 141.01 199.663C127.213 205.279 111.21 208.087 93 208.087C74.7903 208.087 58.787 205.279 44.9902 199.663C31.1936 194.053 18.0325 187.983 5.50781 181.452C-7.01686 174.916 -19.6449 168.89 -32.376 163.375C-45.107 157.854 -59.4865 155.094 -75.5146 155.094C-91.543 155.094 -105.605 157.475 -117.7 162.236C-129.795 166.998 -141.266 172.442 -152.111 178.571C-162.951 184.706 -174.04 190.579 -185.376 196.188C-196.712 201.798 -209.92 205.334 -225 206.797V179.869C-210.623 177.698 -198.237 173.805 -187.844 168.189C-177.45 162.58 -166.976 156.779 -156.421 150.79C-145.866 144.801 -134.317 139.461 -121.775 134.772C-109.24 130.089 -93.8191 127.747 -75.5146 127.747C-57.2102 127.747 -41.3044 130.505 -27.7979 136.02C-14.2857 141.54 -1.32872 147.639 11.0732 154.315C23.4752 160.991 36.0782 167.134 48.8818 172.744C61.6855 178.354 76.3915 181.159 93 181.159C109.608 181.159 124.315 178.354 137.118 172.744C149.922 167.134 162.525 160.991 174.927 154.315C187.329 147.639 200.33 141.54 213.932 136.02C227.539 130.505 243.517 127.747 261.866 127.747C280.12 127.747 295.449 130.089 307.851 134.772C320.253 139.461 331.754 144.801 342.354 150.79C352.954 156.78 363.462 162.58 373.878 168.189C384.294 173.805 396.668 177.698 411 179.869C425.377 177.698 437.763 173.805 448.156 168.189C458.55 162.58 469.024 156.779 479.579 150.79C490.134 144.801 501.683 139.461 514.225 134.772C526.76 130.089 542.181 127.747 560.485 127.747C578.79 127.747 594.696 130.505 608.202 136.02C621.714 141.54 634.671 147.639 647.073 154.315C659.475 160.991 672.078 167.134 684.882 172.744C697.685 178.354 712.392 181.159 729 181.159C745.608 181.159 760.315 178.354 773.118 172.744C785.922 167.134 798.525 160.991 810.927 154.315C823.329 147.639 836.33 141.54 849.932 136.02C863.539 130.505 879.517 127.747 897.866 127.747C916.12 127.747 931.449 130.089 943.851 134.772C956.253 139.461 967.754 144.801 978.354 150.79C988.954 156.78 999.462 162.58 1009.88 168.189C1020.29 173.805 1032.67 177.698 1047 179.869C1061.38 177.698 1073.76 173.805 1084.16 168.189C1094.55 162.58 1105.02 156.779 1115.58 150.79C1126.13 144.801 1137.68 139.461 1150.22 134.772C1162.76 130.089 1178.18 127.747 1196.49 127.747C1214.79 127.747 1230.7 130.505 1244.2 136.02C1257.71 141.54 1270.67 147.639 1283.07 154.315C1295.48 160.991 1308.08 167.134 1320.88 172.744C1333.69 178.354 1348.39 181.159 1365 181.159C1381.61 181.159 1396.31 178.354 1409.12 172.744C1421.92 167.134 1434.52 160.991 1446.93 154.315C1459.33 147.639 1472.33 141.54 1485.93 136.02C1499.54 130.505 1515.52 127.747 1533.87 127.747ZM1533.87 0C1552.12 0 1567.45 2.30305 1579.85 6.9082C1592.25 11.5077 1603.75 16.729 1614.35 22.5732C1624.95 28.4232 1635.46 34.1755 1645.88 39.8301C1656.29 45.4847 1668.67 49.4424 1683 51.7031V79.0498C1667.92 77.3082 1654.71 73.63 1643.38 68.0146C1632.04 62.4047 1620.93 56.6047 1610.04 50.6152C1599.16 44.6257 1587.74 39.2529 1575.78 34.4971C1563.82 29.7356 1549.85 27.3545 1533.87 27.3545C1517.79 27.3545 1503.34 30.0425 1490.52 35.418C1477.69 40.7934 1465.02 46.8192 1452.49 53.4951C1439.97 60.1712 1426.81 66.3149 1413.01 71.9248C1399.21 77.5347 1383.21 80.3389 1365 80.3389C1346.79 80.3389 1330.79 77.5347 1316.99 71.9248C1303.19 66.3149 1290.03 60.1712 1277.51 53.4951C1264.98 46.8191 1252.36 40.7934 1239.62 35.418C1226.89 30.0426 1212.51 27.3545 1196.49 27.3545C1180.46 27.3545 1166.4 29.7356 1154.3 34.4971C1142.2 39.2529 1130.73 44.6257 1119.89 50.6152C1109.05 56.6047 1097.96 62.4048 1086.62 68.0146C1075.29 73.63 1062.08 77.3082 1047 79.0498C1031.92 77.3082 1018.71 73.63 1007.38 68.0146C996.04 62.4047 984.928 56.6047 974.044 50.6152C963.159 44.6257 951.737 39.2529 939.775 34.4971C927.82 29.7356 913.85 27.3545 897.866 27.3545C881.788 27.3545 867.338 30.0425 854.518 35.418C841.692 40.7934 829.017 46.8192 816.492 53.4951C803.967 60.1712 790.807 66.3149 777.01 71.9248C763.213 77.5347 747.21 80.3389 729 80.3389C710.79 80.3389 694.787 77.5347 680.99 71.9248C667.193 66.3149 654.033 60.1712 641.508 53.4951C628.983 46.8191 616.355 40.7934 603.624 35.418C590.893 30.0426 576.513 27.3545 560.485 27.3545C544.457 27.3545 530.395 29.7356 518.3 34.4971C506.205 39.2529 494.734 44.6257 483.889 50.6152C473.049 56.6047 461.96 62.4048 450.624 68.0146C439.288 73.63 426.08 77.3082 411 79.0498C395.92 77.3082 382.712 73.63 371.376 68.0146C360.04 62.4047 348.928 56.6047 338.044 50.6152C327.159 44.6257 315.737 39.2529 303.775 34.4971C291.82 29.7356 277.85 27.3545 261.866 27.3545C245.788 27.3545 231.338 30.0425 218.518 35.418C205.692 40.7934 193.017 46.8192 180.492 53.4951C167.967 60.1712 154.806 66.3149 141.01 71.9248C127.213 77.5347 111.21 80.3389 93 80.3389C74.7903 80.3389 58.787 77.5347 44.9902 71.9248C31.1935 66.3149 18.0325 60.1712 5.50781 53.4951C-7.01682 46.8191 -19.6449 40.7934 -32.376 35.418C-45.107 30.0426 -59.4865 27.3545 -75.5146 27.3545C-91.543 27.3545 -105.605 29.7356 -117.7 34.4971C-129.795 39.2529 -141.266 44.6257 -152.111 50.6152C-162.951 56.6047 -174.04 62.4048 -185.376 68.0146C-196.712 73.63 -209.92 77.3082 -225 79.0498V51.7031C-210.623 49.4424 -198.237 45.4847 -187.844 39.8301C-177.45 34.1756 -166.976 28.4231 -156.421 22.5732C-145.866 16.7289 -134.317 11.5078 -121.775 6.9082C-109.239 2.30303 -93.8192 0 -75.5146 0C-57.2102 2.28882e-05 -41.3044 2.76066 -27.7979 8.28125C-14.2858 13.7962 -1.32864 19.8219 11.0732 26.3584C23.4752 32.8894 36.0782 38.9594 48.8818 44.5693C61.6855 50.1849 76.3915 52.9932 93 52.9932C109.609 52.9932 124.314 50.1849 137.118 44.5693C149.922 38.9594 162.525 32.8893 174.927 26.3584C187.329 19.8219 200.33 13.7962 213.932 8.28125C227.539 2.76064 243.517 1.52588e-05 261.866 0C280.12 0 295.449 2.30305 307.851 6.9082C320.252 11.5077 331.754 16.729 342.354 22.5732C352.954 28.4232 363.462 34.1755 373.878 39.8301C384.294 45.4847 396.668 49.4424 411 51.7031C425.377 49.4424 437.763 45.4847 448.156 39.8301C458.55 34.1756 469.024 28.4231 479.579 22.5732C490.134 16.7289 501.683 11.5078 514.225 6.9082C526.76 2.30303 542.181 0 560.485 0C578.79 2.28882e-05 594.696 2.76066 608.202 8.28125C621.714 13.7962 634.671 19.8219 647.073 26.3584C659.475 32.8894 672.078 38.9594 684.882 44.5693C697.686 50.1849 712.391 52.9932 729 52.9932C745.609 52.9932 760.314 50.1849 773.118 44.5693C785.922 38.9594 798.525 32.8893 810.927 26.3584C823.329 19.8219 836.33 13.7962 849.932 8.28125C863.539 2.76064 879.517 1.52588e-05 897.866 0C916.12 0 931.449 2.30305 943.851 6.9082C956.252 11.5077 967.754 16.729 978.354 22.5732C988.954 28.4232 999.462 34.1755 1009.88 39.8301C1020.29 45.4847 1032.67 49.4424 1047 51.7031C1061.38 49.4424 1073.76 45.4847 1084.16 39.8301C1094.55 34.1756 1105.02 28.4231 1115.58 22.5732C1126.13 16.7289 1137.68 11.5078 1150.22 6.9082C1162.76 2.30303 1178.18 0 1196.49 0C1214.79 2.28882e-05 1230.7 2.76066 1244.2 8.28125C1257.71 13.7962 1270.67 19.8219 1283.07 26.3584C1295.48 32.8894 1308.08 38.9594 1320.88 44.5693C1333.69 50.1849 1348.39 52.9932 1365 52.9932C1381.61 52.9932 1396.31 50.1849 1409.12 44.5693C1421.92 38.9594 1434.52 32.8893 1446.93 26.3584C1459.33 19.8219 1472.33 13.7962 1485.93 8.28125C1499.54 2.76064 1515.52 1.52588e-05 1533.87 0Z" fill="#151515"/>
</svg>
